  0
SECTION
  2
HEADER
  9
$ACADVER
  1
AC1009
  0
ENDSEC
  0
SECTION
  2
ENTITIES
  0
POLYLINE
  5
90
  8
Layer_0
  62
0
  70
1
  66
1
  10
0
  20
0
  30
0
  0
VERTEX
  5
90
  8
Layer_0
  10
10
  20
270
  0
VERTEX
  5
91
  8
Layer_0
  10
10
  20
390
  0
VERTEX
  5
92
  8
Layer_0
  10
70
  20
390
  0
VERTEX
  5
93
  8
Layer_0
  10
70
  20
270
  0
VERTEX
  5
94
  8
Layer_0
  10
10
  20
270
  0
SEQEND
  0
CIRCLE
  5
96
  8
Layer_0
  62
0
  10
110
  20
291
  30
0
  40
3
  0
POLYLINE
  5
96
  8
Layer_0
  62
0
  66
1
  10
0
  20
0
  30
0
  0
VERTEX
  5
96
  8
Layer_0
  10
80
  20
289.97125
  0
VERTEX
  5
97
  8
Layer_0
  10
90
  20
290
  0
VERTEX
  5
98
  8
Layer_0
  10
89.984924
  20
287
  0
SEQEND
  0
POLYLINE
  5
9a
  8
Layer_0
  62
0
  66
1
  10
0
  20
0
  30
0
  0
VERTEX
  5
9a
  8
Layer_0
  10
129.95366
  20
287
  0
VERTEX
  5
9b
  8
Layer_0
  10
130
  20
290
  0
VERTEX
  5
9c
  8
Layer_0
  10
140
  20
289.94492
  0
SEQEND
  0
POLYLINE
  5
9e
  8
Layer_0
  62
0
  70
1
  66
1
  10
0
  20
0
  30
0
  0
VERTEX
  5
9e
  8
Layer_0
  10
80
  20
280
  0
VERTEX
  5
9f
  8
Layer_0
  10
80
  20
271
  0
VERTEX
  5
a0
  8
Layer_0
  10
120
  20
271
  0
VERTEX
  5
a1
  8
Layer_0
  10
120
  20
280
  0
VERTEX
  5
a2
  8
Layer_0
  10
80
  20
280
  0
SEQEND
  0
CIRCLE
  5
a4
  8
Layer_0
  62
0
  10
100
  20
275.5
  30
0
  40
3
  0
POLYLINE
  5
a4
  8
Layer_0
  62
0
  66
1
  10
0
  20
0
  30
0
  0
VERTEX
  5
a4
  8
Layer_0
  10
20
  20
360
  0
VERTEX
  5
a5
  8
Layer_0
  10
20
  20
275
  0
SEQEND
  0
POLYLINE
  5
a7
  8
Layer_0
  62
0
  66
1
  10
0
  20
0
  30
0
  0
VERTEX
  5
a7
  8
Layer_0
  10
50.0504
  20
360
  0
VERTEX
  5
a8
  8
Layer_0
  10
29.979254
  20
360
  0
SEQEND
  0
POLYLINE
  5
aa
  8
Layer_0
  62
0
  66
1
  10
0
  20
0
  30
0
  0
VERTEX
  5
aa
  8
Layer_0
  10
80.041397
  20
359.96399
  0
VERTEX
  5
ab
  8
Layer_0
  10
80.041397
  20
390.03741
  0
VERTEX
  5
ac
  8
Layer_0
  10
111.07053
  20
390.03745
  0
SEQEND
  0
POLYLINE
  5
ae
  8
Layer_0
  62
0
  66
1
  10
0
  20
0
  30
0
  0
VERTEX
  5
ae
  8
Layer_0
  10
89.985214
  20
287
  0
VERTEX
  5
af
  8
Layer_0
  10
129.95412
  20
287
  0
SEQEND
  0
POLYLINE
  5
b1
  8
Layer_0
  62
0
  66
1
  10
0
  20
0
  30
0
  0
VERTEX
  5
b1
  8
Layer_0
  10
135.0414
  20
390.03741
  0
VERTEX
  5
b2
  8
Layer_0
  10
135.04149
  20
375.00629
  0
SEQEND
  0
POLYLINE
  5
b4
  8
Layer_0
  62
0
  66
1
  10
0
  20
0
  30
0
  0
VERTEX
  5
b4
  8
Layer_0
  10
135.0414
  20
359.96399
  0
VERTEX
  5
b5
  8
Layer_0
  10
80.041397
  20
359.96399
  0
SEQEND
  0
POLYLINE
  5
b7
  8
Layer_0
  62
0
  66
1
  10
0
  20
0
  30
0
  0
VERTEX
  5
b7
  8
Layer_0
  10
20
  20
275
  0
VERTEX
  5
b8
  8
Layer_0
  10
60
  20
275
  0
VERTEX
  5
b9
  8
Layer_0
  10
60
  20
360
  0
VERTEX
  5
ba
  8
Layer_0
  10
52.331818
  20
359.99933
  0
VERTEX
  5
bb
  8
Layer_0
  10
52.379578
  20
372.97879
  0
VERTEX
  5
bc
  8
Layer_0
  10
50.000084
  20
372.97864
  0
VERTEX
  5
bd
  8
Layer_0
  10
50.050339
  20
360
  0
SEQEND
  0
POLYLINE
  5
bf
  8
Layer_0
  62
0
  66
1
  10
0
  20
0
  30
0
  0
VERTEX
  5
bf
  8
Layer_0
  10
20
  20
360
  0
VERTEX
  5
c0
  8
Layer_0
  10
27.676195
  20
360.00562
  0
VERTEX
  5
c1
  8
Layer_0
  10
27.659664
  20
373.01221
  0
VERTEX
  5
c2
  8
Layer_0
  10
30.000038
  20
373.03009
  0
VERTEX
  5
c3
  8
Layer_0
  10
29.979256
  20
360.00003
  0
SEQEND
  0
POLYLINE
  5
c5
  8
Layer_0
  62
0
  66
1
  10
0
  20
0
  30
0
  0
VERTEX
  5
c5
  8
Layer_0
  10
135.0414
  20
390.03741
  0
VERTEX
  5
c6
  8
Layer_0
  10
113.34432
  20
389.99622
  0
VERTEX
  5
c7
  8
Layer_0
  10
113.3278
  20
376.89047
  0
VERTEX
  5
c8
  8
Layer_0
  10
111.04141
  20
376.89368
  0
VERTEX
  5
c9
  8
Layer_0
  10
111.07038
  20
390.03748
  0
SEQEND
  0
POLYLINE
  5
cb
  8
Layer_0
  62
0
  66
1
  10
0
  20
0
  30
0
  0
VERTEX
  5
cb
  8
Layer_0
  10
135.04147
  20
375.00665
  0
VERTEX
  5
cc
  8
Layer_0
  10
123.0441
  20
375.01559
  0
VERTEX
  5
cd
  8
Layer_0
  10
123.02955
  20
372.6893
  0
VERTEX
  5
ce
  8
Layer_0
  10
134.97662
  20
372.71243
  0
VERTEX
  5
cf
  8
Layer_0
  10
135.0414
  20
359.96399
  0
SEQEND
  0
POLYLINE
  5
d1
  8
Layer_0
  62
0
  66
1
  10
0
  20
0
  30
0
  0
VERTEX
  5
d1
  8
Layer_0
  10
79.995697
  20
325.98499
  0
VERTEX
  5
d2
  8
Layer_0
  10
79.995697
  20
356.05841
  0
VERTEX
  5
d3
  8
Layer_0
  10
111.02483
  20
356.05844
  0
SEQEND
  0
POLYLINE
  5
d5
  8
Layer_0
  62
0
  66
1
  10
0
  20
0
  30
0
  0
VERTEX
  5
d5
  8
Layer_0
  10
134.9957
  20
356.05841
  0
VERTEX
  5
d6
  8
Layer_0
  10
134.99579
  20
341.02728
  0
SEQEND
  0
POLYLINE
  5
d8
  8
Layer_0
  62
0
  66
1
  10
0
  20
0
  30
0
  0
VERTEX
  5
d8
  8
Layer_0
  10
134.9957
  20
325.98499
  0
VERTEX
  5
d9
  8
Layer_0
  10
79.995697
  20
325.98499
  0
SEQEND
  0
POLYLINE
  5
db
  8
Layer_0
  62
0
  66
1
  10
0
  20
0
  30
0
  0
VERTEX
  5
db
  8
Layer_0
  10
134.99571
  20
356.05823
  0
VERTEX
  5
dc
  8
Layer_0
  10
113.29864
  20
356.01703
  0
VERTEX
  5
dd
  8
Layer_0
  10
113.28211
  20
342.91129
  0
VERTEX
  5
de
  8
Layer_0
  10
110.99573
  20
342.91449
  0
VERTEX
  5
df
  8
Layer_0
  10
111.0247
  20
356.05829
  0
SEQEND
  0
POLYLINE
  5
e1
  8
Layer_0
  62
0
  66
1
  10
0
  20
0
  30
0
  0
VERTEX
  5
e1
  8
Layer_0
  10
134.99579
  20
341.02747
  0
VERTEX
  5
e2
  8
Layer_0
  10
122.99841
  20
341.03641
  0
VERTEX
  5
e3
  8
Layer_0
  10
122.98386
  20
338.71011
  0
VERTEX
  5
e4
  8
Layer_0
  10
134.93094
  20
338.73325
  0
VERTEX
  5
e5
  8
Layer_0
  10
134.99571
  20
325.9848
  0
SEQEND
  0
POLYLINE
  5
e7
  8
Layer_0
  62
0
  66
1
  10
0
  20
0
  30
0
  0
VERTEX
  5
e7
  8
Layer_0
  10
80
  20
289.97119
  0
VERTEX
  5
e8
  8
Layer_0
  10
80
  20
310
  0
VERTEX
  5
e9
  8
Layer_0
  10
97.643341
  20
310
  0
VERTEX
  5
ea
  8
Layer_0
  10
97.685089
  20
297.02777
  0
VERTEX
  5
eb
  8
Layer_0
  10
99.989532
  20
297.02777
  0
VERTEX
  5
ec
  8
Layer_0
  10
100.01801
  20
310
  0
SEQEND
  0
POLYLINE
  5
ee
  8
Layer_0
  62
0
  66
1
  10
0
  20
0
  30
0
  0
VERTEX
  5
ee
  8
Layer_0
  10
140
  20
289.94482
  0
VERTEX
  5
ef
  8
Layer_0
  10
140
  20
310
  0
VERTEX
  5
f0
  8
Layer_0
  10
122.3127
  20
310.00708
  0
VERTEX
  5
f1
  8
Layer_0
  10
122.29865
  20
296.99884
  0
VERTEX
  5
f2
  8
Layer_0
  10
119.99829
  20
297.03278
  0
VERTEX
  5
f3
  8
Layer_0
  10
120
  20
310
  0
VERTEX
  5
f4
  8
Layer_0
  10
100.01809
  20
310
  0
SEQEND
  0
ENDSEC
  0
EOF
